<?xml version="1.0" encoding="UTF-8" standalone="no"?>
<svg
   xmlns:dc="http://purl.org/dc/elements/1.1/"
   xmlns:cc="http://creativecommons.org/ns#"
   xmlns:rdf="http://www.w3.org/1999/02/22-rdf-syntax-ns#"
   xmlns:svg="http://www.w3.org/2000/svg"
   xmlns="http://www.w3.org/2000/svg"
   xmlns:sodipodi="http://sodipodi.sourceforge.net/DTD/sodipodi-0.dtd"
   xmlns:inkscape="http://www.inkscape.org/namespaces/inkscape"
   version="1.1"
   id="Capa_1"
   x="0px"
   y="0px"
   viewBox="0 0 296.377 296.377"
   style="enable-background:new 0 0 296.377 296.377;"
   xml:space="preserve"
   sodipodi:docname="curve.svg"
   inkscape:version="1.0.1 (1.0.1+r73)"><metadata
   id="metadata43"><rdf:RDF><cc:Work
       rdf:about=""><dc:format>image/svg+xml</dc:format><dc:type
         rdf:resource="http://purl.org/dc/dcmitype/StillImage" /><dc:title></dc:title></cc:Work></rdf:RDF></metadata><defs
   id="defs41" /><sodipodi:namedview
   pagecolor="#ffffff"
   bordercolor="#666666"
   borderopacity="1"
   objecttolerance="10"
   gridtolerance="10"
   guidetolerance="10"
   inkscape:pageopacity="0"
   inkscape:pageshadow="2"
   inkscape:window-width="1366"
   inkscape:window-height="704"
   id="namedview39"
   showgrid="false"
   inkscape:zoom="0.94136855"
   inkscape:cx="158.48301"
   inkscape:cy="142.55653"
   inkscape:window-x="0"
   inkscape:window-y="27"
   inkscape:window-maximized="1"
   inkscape:current-layer="g6" />
<g
   id="g6">
	<path
   d="m 217.30352,95.68945 -6.50958,39.38929 c 0,0 -2.43095,8.6276 2.14318,10.66311 4.57412,2.0355 9.74967,-3.1769 9.74967,-3.1769 l 62.22346,-47.336972 c 0,0 7.09181,-5.172665 7.89972,-10.360302 0.80791,-5.187639 -4.2488,-12.048351 -4.2488,-12.048351 L 243.55099,8.6185554 c 0,0 -3.66133,-5.9469932 -7.75979,-4.8311194 -4.09848,1.1158716 -4.75188,7.093701 -4.75188,7.093701 l -5.66437,35.540174 v 0 c 0,0 -58.8176,-15.133599 -116.93874,19.025564 C 50.315075,99.606038 55.160575,171.49194 55.160575,171.49194 c 4.122941,-2.00291 -3.692603,0.83023 0,0 5.767292,-1.22276 13.576258,-0.82392 17.972196,-0.092 3.88868,0.64747 10.696456,2.28023 15.516158,4.98677 6.116603,3.43477 9.893179,8.00781 9.893179,8.00781 v 0 c 0,0 -9.794417,-48.90825 32.106032,-79.23933 41.90045,-30.331073 87.35409,-12.760202 87.35409,-12.760202 v 0"
   id="path2"
   style="opacity:1;fill:#495057;fill-opacity:1;fill-rule:nonzero;stroke:#495057;stroke-width:0;stroke-linejoin:round;stroke-miterlimit:4;stroke-dasharray:none;stroke-opacity:1"
   sodipodi:nodetypes="cczcczcczccczccsscszcc" />
	
<ellipse
   style="fill:none;fill-opacity:1;stroke:#495057;stroke-width:38.7977;stroke-linecap:round;stroke-linejoin:round;stroke-miterlimit:4;stroke-dasharray:none;stroke-opacity:1;paint-order:markers stroke fill"
   id="path45"
   ry="46.028343"
   rx="44.957409"
   cy="214.30739"
   cx="104.46561"
   transform="rotate(9.4531508)" /></g>
<g
   id="g8">
</g>
<g
   id="g10">
</g>
<g
   id="g12">
</g>
<g
   id="g14">
</g>
<g
   id="g16">
</g>
<g
   id="g18">
</g>
<g
   id="g20">
</g>
<g
   id="g22">
</g>
<g
   id="g24">
</g>
<g
   id="g26">
</g>
<g
   id="g28">
</g>
<g
   id="g30">
</g>
<g
   id="g32">
</g>
<g
   id="g34">
</g>
<g
   id="g36">
</g>
</svg>
