<?xml version="1.0" encoding="UTF-8" standalone="no"?>
<svg
   xmlns:dc="http://purl.org/dc/elements/1.1/"
   xmlns:cc="http://creativecommons.org/ns#"
   xmlns:rdf="http://www.w3.org/1999/02/22-rdf-syntax-ns#"
   xmlns:svg="http://www.w3.org/2000/svg"
   xmlns="http://www.w3.org/2000/svg"
   xmlns:sodipodi="http://sodipodi.sourceforge.net/DTD/sodipodi-0.dtd"
   xmlns:inkscape="http://www.inkscape.org/namespaces/inkscape"
   version="1.1"
   viewBox="0 0 297 297"
   enable-background="new 0 0 297 297"
   id="svg108"
   sodipodi:docname="circle.svg"
   inkscape:version="1.0.1 (1.0.1+r73)">
  <metadata
     id="metadata114">
    <rdf:RDF>
      <cc:Work
         rdf:about="">
        <dc:format>image/svg+xml</dc:format>
        <dc:type
           rdf:resource="http://purl.org/dc/dcmitype/StillImage" />
        <dc:title></dc:title>
      </cc:Work>
    </rdf:RDF>
  </metadata>
  <defs
     id="defs112" />
  <sodipodi:namedview
     pagecolor="#ffffff"
     bordercolor="#666666"
     borderopacity="1"
     objecttolerance="10"
     gridtolerance="10"
     guidetolerance="10"
     inkscape:pageopacity="0"
     inkscape:pageshadow="2"
     inkscape:window-width="1366"
     inkscape:window-height="704"
     id="namedview110"
     showgrid="false"
     inkscape:zoom="0.93939394"
     inkscape:cx="143.45285"
     inkscape:cy="143.88232"
     inkscape:window-x="0"
     inkscape:window-y="27"
     inkscape:window-maximized="1"
     inkscape:current-layer="g106" />
  <g
     id="g106">
    <path
       d="m 241.10089,86.720729 c -2.4832,-4.449607 -8.10592,-6.045082 -12.55706,-3.561044 -4.45038,2.483605 -6.04585,8.106349 -3.56223,12.556725 27.28538,48.8925 9.69776,110.87219 -39.20539,138.16351 C 136.87308,261.17125 74.889381,243.59786 47.603999,194.70536 22.2696,149.30883 35.627707,92.633635 76.813366,62.915189 l 2.406516,-6.168769 c -1.072759,4.984952 -4.982825,-1.068948 0,0 4.983763,1.072411 25.658998,27.522632 24.884778,25.404876 L 99.528282,45.075502 c 0.518288,-2.409585 0.42019,-7.010868 -0.93028,-9.069706 -1.34865,-2.062826 -3.83228,-1.419333 -6.24655,-1.912085 L 48.085613,23.148089 c -4.994986,-1.019274 19.372546,19.499063 18.352416,24.492545 -0.460324,2.252555 -0.841131,-1.035716 0.196958,0.824419 1.264724,2.26626 -2.939482,-1.385324 -0.196958,-0.824419 l 0.196958,0.824419 C 17.621688,83.497342 1.4558792,149.8908 31.485037,203.69986 63.730433,261.48017 136.98008,282.24904 194.77104,249.9977 252.56199,217.74636 273.34587,144.50029 241.10089,86.720729 Z"
       id="path100-6"
       style="stroke:#495057;stroke-width:20.845;stroke-miterlimit:4;stroke-dasharray:none;stroke-opacity:1;fill:#495057;fill-opacity:1"
       sodipodi:nodetypes="ssssscccccccccsccsss" />
    <path
       d="m 132.74498,263.48015 c 5.0944,0.11113 9.31682,-3.93012 9.428,-9.02627 0.11118,-5.09527 -3.9301,-9.3177 -9.02538,-9.42886 C 77.170137,243.80378 32.62338,197.25925 33.844896,141.26959 35.066393,85.279941 81.600682,40.722513 137.57815,41.94376 c 51.97491,1.133914 94.08832,41.345565 98.8669,91.9085 l 4.10157,5.19828 c -3.75587,-3.44876 3.4444,-3.75597 0,0 -3.44786,3.75503 -36.72501,8.19467 -34.50674,8.5991 l 34.29047,14.82299 c 1.81562,1.66682 5.83337,3.91162 8.29256,3.78928 2.4617,-0.11876 3.1641,-2.58638 4.81127,-4.41895 l 31.84891,-32.63307 c 3.40772,-3.7916 -26.62307,6.83524 -30.41295,3.42754 -1.70954,-1.53732 1.31901,-0.20104 -0.81068,-0.2475 -2.59465,-0.0566 2.6828,-1.83365 0.81068,0.2475 l -0.81068,-0.2475 C 248.66103,72.38641 199.58811,24.83357 137.98162,23.489517 71.828417,22.046277 16.835012,74.701595 15.391503,140.867 13.947999,207.03239 66.592631,262.03693 132.74498,263.48015 Z"
       id="path100-6-5"
       style="stroke:#495057;stroke-width:20.845;stroke-miterlimit:4;stroke-dasharray:none;stroke-opacity:1;fill:#495057;fill-opacity:1"
       sodipodi:nodetypes="ssssscccccccccsccsss" />
    <path
       d="m 31.949983,85.983951 c -2.442004,4.472341 -0.795902,10.08045 3.67797,12.52331 4.473096,2.442459 10.081225,0.796326 12.523657,-3.676782 26.83301,-49.142224 88.65191,-67.286902 137.80484,-40.448046 49.15292,26.838834 67.31178,88.653557 40.47877,137.795777 -24.91436,45.62841 -79.99083,64.52547 -127.085138,45.51047 l -6.50235,1.25077 c 4.78989,-1.74857 1.75067,4.78607 0,0 -1.74824,-4.78869 9.616568,-36.37858 8.237088,-34.59494 l -28.934754,23.62917 c -2.315163,0.84542 -6.156474,3.38033 -7.179026,5.62019 -1.026897,2.24045 0.841081,3.99918 1.710614,6.3047 l 14.325894,43.29019 c 1.799183,4.76988 6.176935,-26.78347 10.945994,-28.58113 2.1514,-0.8108 -0.4282,1.26366 0.59267,-0.60598 1.24376,-2.27783 0.39411,3.22558 -0.59267,0.60598 l 0.59267,-0.60598 C 148.30821,276.80877 213.10438,255.10899 242.63568,201.02509 274.34646,142.94966 252.88829,69.898957 194.80215,38.18233 136.71602,6.4657112 63.660354,27.909268 31.949983,85.983951 Z"
       id="path100-6-6"
       style="stroke:#495057;stroke-width:20.845;stroke-miterlimit:4;stroke-dasharray:none;stroke-opacity:1;fill:#495057;fill-opacity:1"
       sodipodi:nodetypes="ssssscccccccccsccsss" />
  </g>
</svg>
