<?xml version="1.0" encoding="UTF-8" standalone="no"?>
<svg
   xmlns:dc="http://purl.org/dc/elements/1.1/"
   xmlns:cc="http://creativecommons.org/ns#"
   xmlns:rdf="http://www.w3.org/1999/02/22-rdf-syntax-ns#"
   xmlns:svg="http://www.w3.org/2000/svg"
   xmlns="http://www.w3.org/2000/svg"
   xmlns:sodipodi="http://sodipodi.sourceforge.net/DTD/sodipodi-0.dtd"
   xmlns:inkscape="http://www.inkscape.org/namespaces/inkscape"
   version="1.1"
   id="Layer_1"
   x="0px"
   y="0px"
   viewBox="0 0 210.937 210.937"
   style="enable-background:new 0 0 210.937 210.937;"
   xml:space="preserve"
   sodipodi:docname="straight.svg"
   inkscape:version="1.0.1 (1.0.1+r73)"><metadata
   id="metadata96"><rdf:RDF><cc:Work
       rdf:about=""><dc:format>image/svg+xml</dc:format><dc:type
         rdf:resource="http://purl.org/dc/dcmitype/StillImage" /><dc:title></dc:title></cc:Work></rdf:RDF></metadata><defs
   id="defs94" /><sodipodi:namedview
   pagecolor="#ffffff"
   bordercolor="#666666"
   borderopacity="1"
   objecttolerance="10"
   gridtolerance="10"
   guidetolerance="10"
   inkscape:pageopacity="0"
   inkscape:pageshadow="2"
   inkscape:window-width="1366"
   inkscape:window-height="704"
   id="namedview92"
   showgrid="false"
   inkscape:zoom="1.3226698"
   inkscape:cx="109.48421"
   inkscape:cy="91.900911"
   inkscape:window-x="0"
   inkscape:window-y="27"
   inkscape:window-maximized="1"
   inkscape:current-layer="g55" />
<g
   id="g59">
	<g
   id="g57">
		<g
   id="g55">
			
			
			
			
			<path
   d="m 158.15699,36.266005 v 0 L 121.66414,75.08498 72.580232,124.11745 c -6.444408,-3.80955 -13.744961,-5.9961 -21.431999,-6.00065 -11.333526,-0.01 -21.982875,4.39772 -29.996699,12.4046 -8.027416,8.01209 -12.438178,18.66311 -12.438706,29.98356 -0.0071,11.32883 4.40242,21.98498 12.404585,29.99668 8.002171,8.01175 18.649003,12.43191 29.983604,12.43876 11.334575,0.007 21.981806,-4.39538 29.996675,-12.40461 3.742513,-3.73927 6.696565,-8.05004 8.788752,-12.74226 2.388978,-5.35787 3.647406,-11.20287 3.651006,-17.24366 0.0048,-7.68129 -2.170804,-14.98137 -5.972187,-21.43019 L 174.88959,49.984313 v 0 l 27.82606,28.779335 0.2938,-68.67366 -74.35112,-0.3504619 z M 66.128549,145.54291 c 8.259128,8.27009 8.236689,21.72651 -0.01825,29.98959 -8.275598,8.26518 -21.728099,8.25294 -29.990639,-0.0159 -6.379866,-6.38893 -7.826983,-15.85387 -4.352587,-23.64605 1.02669,-2.30262 2.486473,-4.45722 4.370817,-6.34357 8.275599,-8.26515 21.728097,-8.25294 29.990663,0.0159 z"
   id="path53"
   style="fill:#495057;fill-opacity:1;stroke:#495057;stroke-width:9.88679;stroke-linecap:square;stroke-linejoin:round;stroke-miterlimit:4;stroke-dasharray:none;stroke-opacity:1;paint-order:markers stroke fill"
   sodipodi:nodetypes="cczccccsccsccccccccsccscss" />
		</g>
	</g>
</g>
<g
   id="g61">
</g>
<g
   id="g63">
</g>
<g
   id="g65">
</g>
<g
   id="g67">
</g>
<g
   id="g69">
</g>
<g
   id="g71">
</g>
<g
   id="g73">
</g>
<g
   id="g75">
</g>
<g
   id="g77">
</g>
<g
   id="g79">
</g>
<g
   id="g81">
</g>
<g
   id="g83">
</g>
<g
   id="g85">
</g>
<g
   id="g87">
</g>
<g
   id="g89">
</g>
</svg>
