# Blender v3.0.1 OBJ File: ''
# www.blender.org
mtllib test2.mtl
o Cube
v 1000.000000 470.213654 257.674316
v 1000.000000 0.000000 257.674316
v 1000.000000 470.213654 2257.674316
v 1000.000000 0.000000 2257.674316
v -1000.000000 470.213654 257.674316
v -1000.000000 0.000000 257.674316
v -1000.000000 470.213654 2257.674316
v -1000.000000 0.000000 2257.674316
v -999.999817 470.213654 -257.673950
v -999.999817 0.000000 -257.673950
v -1000.000488 470.213654 -2257.674072
v -1000.000488 0.000000 -2257.674072
v 1000.000244 470.213654 -257.674561
v 1000.000244 0.000000 -257.674561
v 999.999573 470.213654 -2257.674561
v 999.999573 0.000000 -2257.674561
v -1000.000000 -704.424316 1000.000000
v -1000.000000 0.000031 1000.000000
v -1000.000000 -704.424316 -1000.000000
v -1000.000000 0.000031 -1000.000000
v 1000.000000 -704.424316 1000.000000
v 1000.000000 0.000031 1000.000000
v 1000.000000 -704.424316 -1000.000000
v 1000.000000 0.000031 -1000.000000
vt 0.625000 0.500000
vt 0.875000 0.500000
vt 0.875000 0.750000
vt 0.625000 0.750000
vt 0.375000 0.750000
vt 0.625000 1.000000
vt 0.375000 1.000000
vt 0.375000 0.000000
vt 0.625000 0.000000
vt 0.625000 0.250000
vt 0.375000 0.250000
vt 0.125000 0.500000
vt 0.375000 0.500000
vt 0.125000 0.750000
vt 0.625000 0.500000
vt 0.875000 0.500000
vt 0.875000 0.750000
vt 0.625000 0.750000
vt 0.375000 0.750000
vt 0.625000 1.000000
vt 0.375000 1.000000
vt 0.375000 0.000000
vt 0.625000 0.000000
vt 0.625000 0.250000
vt 0.375000 0.250000
vt 0.125000 0.500000
vt 0.375000 0.500000
vt 0.125000 0.750000
vt 0.375000 0.000000
vt 0.625000 0.000000
vt 0.625000 0.250000
vt 0.375000 0.250000
vt 0.625000 0.500000
vt 0.375000 0.500000
vt 0.625000 0.750000
vt 0.375000 0.750000
vt 0.625000 1.000000
vt 0.375000 1.000000
vt 0.125000 0.500000
vt 0.125000 0.750000
vt 0.875000 0.500000
vt 0.875000 0.750000
vn 0.0000 1.0000 0.0000
vn 0.0000 0.0000 1.0000
vn -1.0000 0.0000 0.0000
vn 0.0000 -1.0000 0.0000
vn 1.0000 0.0000 0.0000
vn 0.0000 0.0000 -1.0000
usemtl Material
s off
f 1/1/1 5/2/1 7/3/1 3/4/1
f 4/5/2 3/4/2 7/6/2 8/7/2
f 8/8/3 7/9/3 5/10/3 6/11/3
f 6/12/4 2/13/4 4/5/4 8/14/4
f 2/13/5 1/1/5 3/4/5 4/5/5
f 6/11/6 5/10/6 1/1/6 2/13/6
f 9/15/1 13/16/1 15/17/1 11/18/1
f 12/19/6 11/18/6 15/20/6 16/21/6
f 16/22/5 15/23/5 13/24/5 14/25/5
f 14/26/4 10/27/4 12/19/4 16/28/4
f 10/27/3 9/15/3 11/18/3 12/19/3
f 14/25/2 13/24/2 9/15/2 10/27/2
f 17/29/3 18/30/3 20/31/3 19/32/3
f 19/32/6 20/31/6 24/33/6 23/34/6
f 23/34/5 24/33/5 22/35/5 21/36/5
f 21/36/2 22/35/2 18/37/2 17/38/2
f 19/39/4 23/34/4 21/36/4 17/40/4
f 24/33/1 20/41/1 18/42/1 22/35/1
