# Blender v3.0.1 OBJ File: 'arrows.blend'
# www.blender.org
mtllib arrows.mtl
o Cube.002
v 755.999939 -47.163330 47.162903
v 755.999939 -47.163330 -47.162834
v 0.000000 -12.600519 12.600002
v 0.000002 -12.600519 -12.600002
v 755.999939 47.162407 47.162903
v 755.999939 47.162407 -47.162834
v -0.000002 12.599485 12.600002
v -0.000000 12.599485 -12.600002
v 755.999939 -12.600462 -12.599969
v 755.999939 12.599543 -12.599969
v 755.999939 -12.600462 12.600036
v 755.999939 12.599543 12.600036
v 881.999817 -0.472079 -0.471590
v 881.999817 0.471178 -0.471590
v 881.999817 -0.472079 0.471667
v 881.999817 0.471178 0.471667
v 47.162868 47.162350 -755.999939
v 47.162868 -47.163387 -755.999939
v 12.600002 12.599485 -0.000000
v 12.600002 -12.600519 0.000000
v -47.162868 47.162350 -755.999939
v -47.162868 -47.163387 -755.999939
v -12.600002 12.599485 0.000000
v -12.600002 -12.600519 0.000000
v 12.600002 -12.600519 -755.999939
v -12.600001 -12.600519 -755.999939
v 12.600002 12.599485 -755.999939
v -12.600001 12.599485 -755.999939
v 0.471628 -0.472145 -881.999817
v -0.471628 -0.472145 -881.999817
v 0.471628 0.471111 -881.999817
v -0.471628 0.471111 -881.999817
v 94.325745 755.775879 94.325806
v 94.325745 755.775879 -94.325668
v 25.200005 -12.824086 25.200005
v 25.200005 -12.824084 -25.200005
v -94.325729 755.775879 94.325798
v -94.325729 755.775879 -94.325676
v -25.200005 -12.824086 25.200003
v -25.200005 -12.824084 -25.200006
v 25.200005 755.775879 -25.199936
v -25.200003 755.775879 -25.199938
v 25.200005 755.775879 25.200071
v -25.200003 755.775879 25.200069
v 0.943257 1007.775635 -0.943180
v -0.943257 1007.775635 -0.943180
v 0.943257 1007.775635 0.943334
v -0.943257 1007.775635 0.943334
vt 0.625000 0.500000
vt 0.875000 0.500000
vt 0.875000 0.750000
vt 0.625000 0.750000
vt 0.375000 0.750000
vt 0.625000 1.000000
vt 0.375000 1.000000
vt 0.375000 0.000000
vt 0.625000 0.000000
vt 0.625000 0.250000
vt 0.375000 0.250000
vt 0.125000 0.500000
vt 0.375000 0.500000
vt 0.125000 0.750000
vt 0.611500 0.486500
vt 0.388500 0.486500
vt 0.388500 0.486500
vt 0.611500 0.486500
vt 0.388500 0.263500
vt 0.611500 0.263500
vt 0.388500 0.263500
vt 0.611500 0.263500
vt 0.625000 0.500000
vt 0.875000 0.500000
vt 0.875000 0.750000
vt 0.625000 0.750000
vt 0.375000 0.750000
vt 0.625000 1.000000
vt 0.375000 1.000000
vt 0.375000 0.000000
vt 0.625000 0.000000
vt 0.625000 0.250000
vt 0.375000 0.250000
vt 0.125000 0.500000
vt 0.375000 0.500000
vt 0.125000 0.750000
vt 0.611500 0.486500
vt 0.388500 0.486500
vt 0.388500 0.486500
vt 0.611500 0.486500
vt 0.388500 0.263500
vt 0.611500 0.263500
vt 0.388500 0.263500
vt 0.611500 0.263500
vt 0.625000 0.500000
vt 0.875000 0.500000
vt 0.875000 0.750000
vt 0.625000 0.750000
vt 0.375000 0.750000
vt 0.625000 1.000000
vt 0.375000 1.000000
vt 0.375000 0.000000
vt 0.625000 0.000000
vt 0.625000 0.250000
vt 0.375000 0.250000
vt 0.125000 0.500000
vt 0.375000 0.500000
vt 0.125000 0.750000
vt 0.611500 0.486500
vt 0.388500 0.486500
vt 0.388500 0.486500
vt 0.611500 0.486500
vt 0.388500 0.263500
vt 0.611500 0.263500
vt 0.388500 0.263500
vt 0.611500 0.263500
vn -0.0000 0.0000 1.0000
vn -1.0000 -0.0000 -0.0000
vn -0.0000 1.0000 0.0000
vn 0.0000 0.0000 -1.0000
vn 0.0000 -1.0000 0.0000
vn 0.3475 -0.9377 0.0000
vn 1.0000 0.0000 0.0000
vn 0.3475 0.9377 0.0000
vn 0.3475 0.0000 -0.9377
vn 0.3475 0.0000 0.9377
vn 0.9377 0.0000 -0.3475
vn -0.9377 0.0000 -0.3475
vn 0.0000 -0.9377 -0.3475
vn 0.0000 0.9377 -0.3475
vn 0.9377 0.3475 0.0000
vn -0.9377 0.3475 0.0000
vn 0.0000 0.3475 -0.9377
vn -0.0000 0.3475 0.9377
usemtl Material
s off
f 11/1/1 12/2/1 7/3/1 3/4/1
f 4/5/2 3/4/2 7/6/2 8/7/2
f 8/8/3 7/9/3 12/10/3 10/11/3
f 10/12/4 9/13/4 4/5/4 8/14/4
f 9/13/5 11/1/5 3/4/5 4/5/5
f 1/15/6 2/16/6 13/17/6 15/18/6
f 6/19/2 2/16/2 9/13/2 10/11/2
f 2/16/2 1/15/2 11/1/2 9/13/2
f 5/20/2 6/19/2 10/11/2 12/10/2
f 1/15/2 5/20/2 12/10/2 11/1/2
f 14/21/7 16/22/7 15/18/7 13/17/7
f 6/19/8 5/20/8 16/22/8 14/21/8
f 2/16/9 6/19/9 14/21/9 13/17/9
f 5/20/10 1/15/10 15/18/10 16/22/10
f 27/23/3 28/24/3 23/25/3 19/26/3
f 20/27/1 19/26/1 23/28/1 24/29/1
f 24/30/2 23/31/2 28/32/2 26/33/2
f 26/34/5 25/35/5 20/27/5 24/36/5
f 25/35/7 27/23/7 19/26/7 20/27/7
f 17/37/11 18/38/11 29/39/11 31/40/11
f 22/41/1 18/38/1 25/35/1 26/33/1
f 18/38/1 17/37/1 27/23/1 25/35/1
f 21/42/1 22/41/1 26/33/1 28/32/1
f 17/37/1 21/42/1 28/32/1 27/23/1
f 30/43/4 32/44/4 31/40/4 29/39/4
f 22/41/12 21/42/12 32/44/12 30/43/12
f 18/38/13 22/41/13 30/43/13 29/39/13
f 21/42/14 17/37/14 31/40/14 32/44/14
f 43/45/1 44/46/1 39/47/1 35/48/1
f 36/49/5 35/48/5 39/50/5 40/51/5
f 40/52/2 39/53/2 44/54/2 42/55/2
f 42/56/4 41/57/4 36/49/4 40/58/4
f 41/57/7 43/45/7 35/48/7 36/49/7
f 33/59/15 34/60/15 45/61/15 47/62/15
f 38/63/5 34/60/5 41/57/5 42/55/5
f 34/60/5 33/59/5 43/45/5 41/57/5
f 37/64/5 38/63/5 42/55/5 44/54/5
f 33/59/5 37/64/5 44/54/5 43/45/5
f 46/65/3 48/66/3 47/62/3 45/61/3
f 38/63/16 37/64/16 48/66/16 46/65/16
f 34/60/17 38/63/17 46/65/17 45/61/17
f 37/64/18 33/59/18 47/62/18 48/66/18
